<svg id="Layer_1" data-name="Layer 1" xmlns="http://www.w3.org/2000/svg" viewBox="0 0 21.79 12.76">
  <defs>
    <style>
      .cls-1 {
        fill: #41558c;
      }
    </style>
  </defs>
  <title>icon-vk</title>
  <path class="cls-1" d="M481.63,18.43a5.89,5.89,0,0,0-2.35-.21,13.6,13.6,0,0,0-2.35.11,14.38,14.38,0,0,0-1.39,2.57c-0.74,1.42-1.66,2.79-2.25,2.78-0.76,0-.58-2.35-0.54-4.07,0-1.14-.15-1.5-0.32-1.61a6.78,6.78,0,0,0-1.5-.53s-3.28-.25-3.75,1.18c0.62,0.08,1.7-.12,1.29,4.28,0,0.21-.5,2-2-0.43-0.38-.61-1.85-4.27-2.35-4.28-1.7,0-3.36-.12-4,0.21s0.73,2.83,2.89,6.21c1.76,2.76,3.63,4.92,6.85,5.46a7.9,7.9,0,0,0,2.67-.11c0.34-.17-0.07-2.56,1.07-2.78,0.51-.1,2.47,2.49,3.21,2.78a7.62,7.62,0,0,0,2.46.21c1.1,0,2.34.1,2.46-.64,0.27-1.65-3.32-3.8-3.42-4.82-0.08-.73,1.31-2.08,2-3.1,0.88-1.25,1.83-2.75,1.28-3.21" transform="translate(-460 -17.45)"/>
</svg>
